<svg width="24" height="24" viewBox="0 0 24 24" fill="none" xmlns="http://www.w3.org/2000/svg">
<path d="M19.601 5.02123C19.601 5.02123 23 8.95792 23 16.0493V17.5363C23 17.5363 18.7074 20.3334 17.3992 20.3334L16.1301 18.4883C16.9188 18.1351 17.9947 17.5218 17.9947 17.5218L17.6014 17.2174C17.6014 17.2174 15.0864 18.3824 12 18.3824C8.91358 18.3824 6.3986 17.2174 6.3986 17.2174L6.00527 17.5218C6.00527 17.5218 7.08117 18.1351 7.8699 18.4883L6.60076 20.3334C5.29256 20.3334 1 17.5363 1 17.5363V16.0493C1 8.95792 4.39903 5.02123 4.39903 5.02123C4.39903 5.02123 6.72398 3.89576 8.87119 3.59961L9.53739 4.86243C9.53739 4.86243 10.5963 4.61716 12 4.61716C13.4037 4.61716 14.4626 4.86243 14.4626 4.86243L15.1288 3.59961C17.276 3.89576 19.601 5.02123 19.601 5.02123ZM8.3374 15.0132C9.41927 15.0132 10.2963 14.0281 10.2963 12.8129C10.2963 11.5976 9.41927 10.6125 8.3374 10.6125C7.25552 10.6125 6.37847 11.5976 6.37847 12.8129C6.37847 14.0281 7.25552 15.0132 8.3374 15.0132ZM15.6626 15.0132C16.7444 15.0132 17.6215 14.0281 17.6215 12.8129C17.6215 11.5976 16.7444 10.6125 15.6626 10.6125C14.5807 10.6125 13.7037 11.5976 13.7037 12.8129C13.7037 14.0281 14.5807 15.0132 15.6626 15.0132Z" fill="white" fill-opacity="0.64"/>
</svg>
