<svg width="24" height="24" viewBox="0 0 24 24" fill="none" xmlns="http://www.w3.org/2000/svg">
<path d="M12.4254 2.01667C13.5171 2 14.6004 2.00833 15.6837 2C15.7504 3.27498 16.2087 4.57497 17.1421 5.47496C18.0754 6.39994 19.392 6.82494 20.6753 6.9666V10.3249C19.4754 10.2832 18.267 10.0332 17.1754 9.51657C16.7004 9.29991 16.2587 9.02491 15.8254 8.74158C15.8171 11.1749 15.8337 13.6082 15.8087 16.0332C15.7421 17.1998 15.3587 18.3581 14.6837 19.3165C13.5921 20.9164 11.7005 21.9581 9.75881 21.9914C8.56716 22.0581 7.37551 21.7331 6.35885 21.1331C4.67554 20.1414 3.49222 18.3248 3.31722 16.3748C3.30056 15.9582 3.29222 15.5415 3.30889 15.1332C3.45889 13.5499 4.24221 12.0332 5.45886 10.9999C6.84218 9.7999 8.77549 9.22491 10.5838 9.56657C10.6005 10.7999 10.5505 12.0332 10.5505 13.2665C9.72547 12.9999 8.75882 13.0749 8.03383 13.5749C7.50884 13.9165 7.10884 14.4415 6.90051 15.0332C6.72551 15.4582 6.77551 15.9248 6.78385 16.3748C6.98384 17.7415 8.30049 18.8915 9.70048 18.7665C10.6338 18.7581 11.5255 18.2165 12.0088 17.4248C12.1671 17.1498 12.3421 16.8665 12.3504 16.5415C12.4338 15.0498 12.4004 13.5665 12.4088 12.0749C12.4171 8.71658 12.4004 5.36662 12.4254 2.01667Z" fill="white" fill-opacity="0.64"/>
</svg>
